<svg width="83" height="19" viewBox="0 0 83 19" fill="none" xmlns="http://www.w3.org/2000/svg">
<path d="M7.26058 15.22C5.74058 15.22 4.44058 14.92 3.36058 14.32C2.28058 13.72 1.44724 12.88 0.860576 11.8C0.287243 10.7067 0.000576034 9.42 0.000576034 7.94C0.000576034 6.47333 0.287243 5.2 0.860576 4.12C1.44724 3.02667 2.28058 2.18 3.36058 1.58C4.44058 0.98 5.74058 0.68 7.26058 0.68C8.19391 0.68 9.08724 0.826666 9.94058 1.12C10.7939 1.41333 11.4939 1.81333 12.0406 2.32L11.0806 4.78C10.4806 4.31333 9.87391 3.97333 9.26058 3.76C8.66058 3.53333 8.02724 3.42 7.36058 3.42C6.01391 3.42 4.99391 3.81333 4.30058 4.6C3.62058 5.37333 3.28058 6.48667 3.28058 7.94C3.28058 9.39333 3.62058 10.5133 4.30058 11.3C4.99391 12.0867 6.01391 12.48 7.36058 12.48C8.02724 12.48 8.66058 12.3733 9.26058 12.16C9.87391 11.9333 10.4806 11.5867 11.0806 11.12L12.0406 13.58C11.4939 14.0733 10.7939 14.4733 9.94058 14.78C9.08724 15.0733 8.19391 15.22 7.26058 15.22ZM16.7618 15.22C16.0285 15.22 15.3818 15.08 14.8218 14.8C14.2618 14.52 13.8152 14.14 13.4818 13.66C13.1618 13.18 13.0018 12.64 13.0018 12.04C13.0018 11.3333 13.1885 10.7667 13.5618 10.34C13.9352 9.91333 14.5418 9.61333 15.3818 9.44C16.2218 9.25333 17.3352 9.16 18.7218 9.16H19.4418V8.82C19.4418 8.23333 19.3085 7.82 19.0418 7.58C18.7752 7.32667 18.3218 7.2 17.6818 7.2C17.1485 7.2 16.5818 7.28667 15.9818 7.46C15.3952 7.62 14.8085 7.86667 14.2218 8.2L13.4018 6.18C13.7485 5.95333 14.1685 5.74667 14.6618 5.56C15.1685 5.37333 15.6952 5.23333 16.2418 5.14C16.7885 5.03333 17.3085 4.98 17.8018 4.98C19.3218 4.98 20.4552 5.32667 21.2018 6.02C21.9485 6.7 22.3218 7.76 22.3218 9.2V15H19.5018V13.52C19.3018 14.04 18.9618 14.4533 18.4818 14.76C18.0152 15.0667 17.4418 15.22 16.7618 15.22ZM17.4418 13.2C18.0018 13.2 18.4752 13.0067 18.8618 12.62C19.2485 12.2333 19.4418 11.7333 19.4418 11.12V10.72H18.7418C17.7152 10.72 16.9885 10.8133 16.5618 11C16.1352 11.1733 15.9218 11.48 15.9218 11.92C15.9218 12.2933 16.0485 12.6 16.3018 12.84C16.5685 13.08 16.9485 13.2 17.4418 13.2ZM24.5746 15V5.18H27.5346V6.62C27.868 6.08667 28.3146 5.68 28.8746 5.4C29.4346 5.12 30.0613 4.98 30.7546 4.98C31.9146 4.98 32.7813 5.32 33.3546 6C33.928 6.66667 34.2146 7.7 34.2146 9.1V15H31.1946V9.24C31.1946 8.56 31.068 8.07333 30.8146 7.78C30.5613 7.47333 30.188 7.32 29.6946 7.32C29.0546 7.32 28.5413 7.52 28.1546 7.92C27.7813 8.32 27.5946 8.85333 27.5946 9.52V15H24.5746ZM40.2892 15.22C39.4358 15.22 38.6825 15.0133 38.0292 14.6C37.3892 14.1733 36.8892 13.58 36.5292 12.82C36.1692 12.0467 35.9892 11.1333 35.9892 10.08C35.9892 9.02667 36.1692 8.12 36.5292 7.36C36.8892 6.6 37.3892 6.01333 38.0292 5.6C38.6825 5.18667 39.4358 4.98 40.2892 4.98C40.9425 4.98 41.5425 5.12 42.0892 5.4C42.6358 5.68 43.0492 6.05333 43.3292 6.52V0.899999H46.3492V15H43.3892V13.52C43.1225 14.04 42.7092 14.4533 42.1492 14.76C41.6025 15.0667 40.9825 15.22 40.2892 15.22ZM41.1892 12.96C41.8292 12.96 42.3492 12.7267 42.7492 12.26C43.1625 11.7933 43.3692 11.0667 43.3692 10.08C43.3692 9.10667 43.1625 8.39333 42.7492 7.94C42.3492 7.47333 41.8292 7.24 41.1892 7.24C40.5492 7.24 40.0292 7.47333 39.6292 7.94C39.2292 8.39333 39.0292 9.10667 39.0292 10.08C39.0292 11.0667 39.2292 11.7933 39.6292 12.26C40.0292 12.7267 40.5492 12.96 41.1892 12.96ZM49.4362 18.6L51.3162 14.46L47.2762 5.18H50.4562L52.9162 11.42L55.4562 5.18H58.4562L52.5162 18.6H49.4362Z" fill="#4880FF"/>
<path d="M66.4403 15.22C64.9203 15.22 63.6203 14.92 62.5403 14.32C61.4603 13.72 60.6269 12.88 60.0403 11.8C59.4669 10.7067 59.1803 9.42 59.1803 7.94C59.1803 6.47333 59.4669 5.2 60.0403 4.12C60.6269 3.02667 61.4603 2.18 62.5403 1.58C63.6203 0.98 64.9203 0.68 66.4403 0.68C67.3736 0.68 68.2669 0.826666 69.1203 1.12C69.9736 1.41333 70.6736 1.81333 71.2203 2.32L70.2603 4.78C69.6603 4.31333 69.0536 3.97333 68.4403 3.76C67.8403 3.53333 67.2069 3.42 66.5403 3.42C65.1936 3.42 64.1736 3.81333 63.4803 4.6C62.8003 5.37333 62.4603 6.48667 62.4603 7.94C62.4603 9.39333 62.8003 10.5133 63.4803 11.3C64.1736 12.0867 65.1936 12.48 66.5403 12.48C67.2069 12.48 67.8403 12.3733 68.4403 12.16C69.0536 11.9333 69.6603 11.5867 70.2603 11.12L71.2203 13.58C70.6736 14.0733 69.9736 14.4733 69.1203 14.78C68.2669 15.0733 67.3736 15.22 66.4403 15.22ZM77.0095 15.22C75.9562 15.22 75.0362 15.0133 74.2495 14.6C73.4762 14.1733 72.8762 13.58 72.4495 12.82C72.0228 12.0467 71.8095 11.1333 71.8095 10.08C71.8095 9.04 72.0228 8.14 72.4495 7.38C72.8762 6.60667 73.4762 6.01333 74.2495 5.6C75.0362 5.18667 75.9562 4.98 77.0095 4.98C78.0628 4.98 78.9762 5.18667 79.7495 5.6C80.5362 6.01333 81.1428 6.60667 81.5695 7.38C82.0095 8.14 82.2295 9.04 82.2295 10.08C82.2295 11.1333 82.0095 12.0467 81.5695 12.82C81.1428 13.58 80.5362 14.1733 79.7495 14.6C78.9762 15.0133 78.0628 15.22 77.0095 15.22ZM77.0095 12.96C77.6495 12.96 78.1695 12.7267 78.5695 12.26C78.9828 11.7933 79.1895 11.0667 79.1895 10.08C79.1895 9.10667 78.9828 8.39333 78.5695 7.94C78.1695 7.47333 77.6495 7.24 77.0095 7.24C76.3695 7.24 75.8495 7.47333 75.4495 7.94C75.0495 8.39333 74.8495 9.10667 74.8495 10.08C74.8495 11.0667 75.0495 11.7933 75.4495 12.26C75.8495 12.7267 76.3695 12.96 77.0095 12.96Z" fill="#202224"/>
</svg>
